<?xml version="1.0" encoding="utf-8"?>
<!-- Generator: Adobe Illustrator 24.1.3, SVG Export Plug-In . SVG Version: 6.00 Build 0)  -->
<svg version="1.1" xmlns="http://www.w3.org/2000/svg" xmlns:xlink="http://www.w3.org/1999/xlink" x="0px" y="0px"
	 viewBox="0 0 671.4 235.73" style="enable-background:new 0 0 671.4 235.73;" xml:space="preserve">
<style type="text/css">
	.st0{display:none;fill:#F07F1A;}
	.st1{fill:#F07F19;}
	.st2{fill:#FFFFFF;}
	.st3{display:none;}
	.st4{display:inline;opacity:0.5;fill:#456CB3;}
</style>
<g id="Layer_1">
	<rect x="-9.86" y="-10.51" class="st1" width="691.12" height="257.21"/>
	<g>
		<path class="st2" d="M244.33,102.33h-18.79c-6.09,0-6.09,0-7.36,7.11c-1.27,7.11-1.27,7.36,4.32,7.36h11.17l-6.35,36.31
			c-1.52,8.13-5.08,13.71-16,17.01c-2.79,0.76-3.55,1.78-3.55,3.05c0,1.52,0.51,2.79,1.78,5.84c1.78,4.32,2.79,5.08,4.32,5.08
			c1.52,0,4.32-0.76,5.33-1.02c15.49-5.08,21.84-17.01,24.38-31.23l7.11-40.88C251.95,102.33,251.95,102.33,244.33,102.33"/>
		<path class="st2" d="M308.07,102.33c-7.62,0-7.62,0-8.63,6.35l-5.59,33.01c-1.52,9.65-4.06,15.24-13.46,15.24
			c-9.14,0-12.44-5.59-10.92-14.22l5.33-31.49c1.52-8.89,1.27-8.89-6.6-8.89c-7.62,0-7.87,0-8.89,6.09l-5.59,33.01
			c-3.3,18.79,8.38,30.47,24.88,30.47c18.54,0,27.93-8.38,30.98-28.19l5.59-32.76C316.45,102.33,315.94,102.33,308.07,102.33"/>
		<path class="st2" d="M342.85,156.41c6.09-0.25,9.4-3.05,9.4-5.84c0-3.55-4.32-4.82-10.16-6.6c-11.43-3.55-21.84-7.62-21.84-19.81
			c0-14.47,11.93-22.35,26.92-22.35c6.35,0,13.46,0.25,18.03,0.76c4.06,0.51,5.08,1.78,3.81,8.13s-2.79,6.86-6.35,6.6
			c-4.32-0.25-9.9-0.76-16.51-0.76c-7.62,0-9.9,2.79-9.9,5.33c0,3.3,3.05,5.08,10.16,7.11c13.2,3.81,21.84,9.14,21.84,20.57
			c0,13.46-9.9,21.33-25.9,21.84c-8.63,0.25-16.25-0.25-22.85-1.27c-5.08-0.76-5.33-0.76-4.06-8.13c1.27-6.6,1.27-7.11,6.09-6.6
			C330.92,156.41,336.76,156.67,342.85,156.41"/>
		<path class="st2" d="M425.89,102.33h-42.91c-6.09,0-6.09,0-7.36,7.36s-1.02,7.36,4.32,7.36h13.97l-7.87,45.45
			c-1.52,8.89-1.27,8.89,6.6,8.89c7.36,0,7.62,0,8.63-6.35l8.13-47.99h13.46c6.09,0,6.09,0,7.36-7.36
			C431.47,102.33,431.47,102.33,425.89,102.33"/>
		<path class="st2" d="M501.56,116.8c6.09,0,6.09,0,7.36-7.36c1.27-7.36,1.27-7.36-4.32-7.36h-30.72c-10.92,0-10.66,0-12.44,10.92
			l-7.87,45.96c-2.03,11.93-1.78,11.93,9.14,11.93h29.96c6.35,0,6.09,0,7.36-7.11c1.27-7.36,1.27-7.36-4.32-7.36h-25.9l2.03-13.2
			h21.58c5.84,0,5.84,0,6.86-6.86c1.02-7.11,1.02-7.11-6.86-7.11h-19.04l2.03-12.44L501.56,116.8z"/>
		<path class="st2" d="M534.06,141.18l9.9-21.84c0.76-1.78,0.76-1.78,2.03-1.78c1.27,0,1.27,0,1.52,2.03l3.05,21.58H534.06z
			 M560.98,110.71c-1.52-8.63-1.52-8.63-13.71-8.63c-11.43,0-11.17,0-14.73,7.11l-25.65,53.58c-3.81,7.62-3.05,8.38,6.35,8.38
			c7.36,0,7.36,0,10.41-6.86l4.06-9.14h24.88l1.27,9.14c1.02,6.86,1.27,6.86,8.63,6.86c8.38,0,9.14-0.51,7.62-8.89L560.98,110.71z"
			/>
		<path class="st2" d="M621.66,102.33H578.5c-6.09,0-6.09,0-7.36,7.36c-1.27,7.36-1.02,7.36,4.32,7.36h13.97l-7.87,45.45
			c-1.52,8.89-1.27,8.89,6.6,8.89c7.36,0,7.62,0,8.63-6.35l8.13-47.99h13.46c6.09,0,6.09,0,7.36-7.36
			C627.25,102.33,627.25,102.33,621.66,102.33"/>
	</g>
	<path id="House_4_" class="st2" d="M182.09,114.17c-4.51-7.56-9.51-14.83-14.94-21.76l-0.14-0.17l-0.05-0.05
		c-0.27-0.34-0.98-1.22-1.25-1.56c-2.48-3.4-5.39-30.59-5.73-32.6c-0.41-2.36-1.08-4.82-4.5-5.18c-2.78-0.29-6.89-0.75-11.43-0.98
		c-2.1-0.11-3.19,1.03-3.74,2.06c-0.38,0.71-0.55,1.52-0.56,2.32c-0.06,3.48,0.01,5.19,0.01,5.62c0,0.05-0.01,0.09-0.01,0.14
		c-0.05,0.24-0.18,0.45-0.36,0.6c-0.39,0.33-0.97,0.29-1.37-0.02c-2.15-1.64-13.39-10.16-19.59-14.01c-0.29-0.17-0.59-0.33-0.9-0.46
		c-2.27-1.02-4.91-1.05-7.07,0.19c-0.15,0.09-0.3,0.18-0.44,0.28c-2.04,1.29-37.05,21.16-63.55,65.38c0,0-1.65,2.31-0.41,4.47
		c1.19,2.49,12.76,3.19,14.62,3.4c2.09,0.22,2.08,1.93,2.08,1.93c0.22,18.15,0.53,26.96,3.49,57.73c0,0,0.48,3.21,3.65,3.37
		c1.29,0.06,6.05-0.21,18.75-0.5c0.48,0.05,0.92-0.3,0.97-0.78c0.01-0.07,0.01-0.15,0-0.22c-1.22-12.56-1.6-23.43-1.63-24.06
		c-0.03-0.45-0.44-1.12-0.86-1.29c-4.69-2.68-7.47-7.37-7.51-12.77c-0.35-24.87,1.16-43.96,1.16-43.96s0.15-2.65,2.48-2.44
		c2.33,0.21,2.17,2.82,2.17,2.82c-0.84,10.71-1.16,30.02-1.16,30.02s0,3.67,3.52,3.67c3.52-0.01,3.52-3.67,3.52-3.67
		c-0.11-15.11,1.16-30.3,1.16-30.3s0-2.57,2.48-2.57c1.35,0,1.87,0.93,2.06,1.67c0.11,0.4,0.13,0.81,0.1,1.23
		c-1.03,13.08-1.14,29.95-1.14,29.95s0,3.67,3.52,3.67s3.5-3.97,3.5-3.97c-0.06-12.53,1.17-29.97,1.17-29.97
		c0.11-1.36,0.79-2.54,2.45-2.56c2.07,0.06,2.23,2.05,2.19,2.56c-1.1,13.6-1.13,34.44-1.08,43.37c0.16,5.37-2.56,10.42-7.14,13.23
		c-0.42,0.28-0.65,0.78-0.59,1.29c0.29,8.27,0.98,17.44,1.58,24.01c0.03,0.44,0.37,0.8,0.81,0.84c3.51,0,10.25-0.04,14.48-0.04
		c6.79,0,9.5,0.04,14.48,0.11c0.56,0,0.83-0.41,0.87-0.98c1.29-11.9,1.74-20.52,1.8-21.27c0.08-0.85-0.97-1.01-0.97-1.01
		c-1.56-0.21-5.2-0.64-8.3-1.15s-3.21-4.04-3.21-4.04c-2.62-37.12,16.97-60.26,16.97-60.26s1.95-2.57,4.65-1.56
		c2.39,0.89,3.02,7.77,3.05,8.18c2.62,30.73-0.34,66.57-2.05,81.2c-0.07,0.6,0.21,1.07,0.75,1.19c0.68,0.11,12.44,0.51,13.51,0.38
		c1.91-0.2,3.45-1.65,3.74-3.55c4.17-28.75,3.53-57.59,3.53-57.59c0.09-1.03,0.9-1.84,1.93-1.93l11.27-1.21
		c1.48-0.22,2.74-0.81,3.39-2.08C182.93,117.12,182.88,115.49,182.09,114.17"/>
</g>
<g id="Layer_2" class="st3">
</g>
</svg>
