<?xml version="1.0" encoding="utf-8"?>
<!-- Generator: Adobe Illustrator 24.1.3, SVG Export Plug-In . SVG Version: 6.00 Build 0)  -->
<svg version="1.1" xmlns="http://www.w3.org/2000/svg" xmlns:xlink="http://www.w3.org/1999/xlink" x="0px" y="0px"
	 viewBox="0 0 389.2 391.51" style="enable-background:new 0 0 389.2 391.51;" xml:space="preserve">
<style type="text/css">
	.st0{display:none;fill:#F07F1A;}
	.st1{fill:#F07F19;}
	.st2{fill:#FFFFFF;}
	.st3{display:none;}
	.st4{display:inline;opacity:0.5;fill:#456CB3;}
</style>
<g id="Layer_1">
	<g>
		<path class="st1" d="M71.29,284.2H57.89c-4.35,0-4.35,0-5.25,5.07c-0.91,5.07-0.91,5.25,3.08,5.25h7.97l-4.53,25.9
			c-1.09,5.8-3.62,9.78-11.41,12.14c-1.99,0.54-2.54,1.27-2.54,2.17c0,1.09,0.36,1.99,1.27,4.17c1.27,3.08,1.99,3.62,3.08,3.62
			s3.08-0.54,3.8-0.72c11.05-3.62,15.58-12.14,17.39-22.28l5.07-29.17C76.73,284.2,76.73,284.2,71.29,284.2"/>
		<path class="st1" d="M116.76,284.2c-5.43,0-5.43,0-6.16,4.53l-3.99,23.55c-1.09,6.88-2.9,10.87-9.6,10.87
			c-6.52,0-8.88-3.99-7.79-10.14l3.8-22.46c1.09-6.34,0.91-6.34-4.71-6.34c-5.43,0-5.62,0-6.34,4.35l-3.99,23.55
			c-2.35,13.41,5.98,21.74,17.75,21.74c13.22,0,19.93-5.98,22.1-20.11l3.99-23.37C122.74,284.2,122.38,284.2,116.76,284.2"/>
		<path class="st1" d="M141.58,322.79c4.35-0.18,6.7-2.17,6.7-4.17c0-2.54-3.08-3.44-7.25-4.71c-8.15-2.54-15.58-5.43-15.58-14.13
			c0-10.33,8.51-15.94,19.2-15.94c4.53,0,9.6,0.18,12.86,0.54c2.9,0.36,3.62,1.27,2.72,5.8c-0.91,4.53-1.99,4.89-4.53,4.71
			c-3.08-0.18-7.06-0.54-11.77-0.54c-5.43,0-7.06,1.99-7.06,3.8c0,2.35,2.17,3.62,7.25,5.07c9.42,2.72,15.58,6.52,15.58,14.67
			c0,9.6-7.06,15.22-18.48,15.58c-6.16,0.18-11.59-0.18-16.3-0.91c-3.62-0.54-3.8-0.54-2.9-5.8c0.91-4.71,0.91-5.07,4.35-4.71
			C133.06,322.79,137.23,322.97,141.58,322.79"/>
		<path class="st1" d="M200.81,284.2H170.2c-4.35,0-4.35,0-5.25,5.25s-0.72,5.25,3.08,5.25h9.96l-5.62,32.43
			c-1.09,6.34-0.91,6.34,4.71,6.34c5.25,0,5.43,0,6.16-4.53l5.8-34.24h9.6c4.35,0,4.35,0,5.25-5.25S204.8,284.2,200.81,284.2"/>
		<path class="st1" d="M254.8,294.53c4.35,0,4.35,0,5.25-5.25c0.91-5.25,0.91-5.25-3.08-5.25h-21.92c-7.79,0-7.61,0-8.88,7.79
			l-5.62,32.79c-1.45,8.51-1.27,8.51,6.52,8.51h21.38c4.53,0,4.35,0,5.25-5.07c0.91-5.25,0.91-5.25-3.08-5.25h-18.48l1.45-9.42H249
			c4.17,0,4.17,0,4.89-4.89c0.72-5.07,0.72-5.07-4.89-5.07h-13.59l1.45-8.88H254.8z"/>
		<path class="st1" d="M277.98,311.92l7.06-15.58c0.54-1.27,0.54-1.27,1.45-1.27c0.91,0,0.91,0,1.09,1.45l2.17,15.4H277.98z
			 M297.18,290.18c-1.09-6.16-1.09-6.16-9.78-6.16c-8.15,0-7.97,0-10.51,5.07l-18.3,38.22c-2.72,5.43-2.17,5.98,4.53,5.98
			c5.25,0,5.25,0,7.43-4.89l2.9-6.52h17.75l0.91,6.52c0.72,4.89,0.91,4.89,6.16,4.89c5.98,0,6.52-0.36,5.43-6.34L297.18,290.18z"/>
		<path class="st1" d="M340.48,284.2h-30.8c-4.35,0-4.35,0-5.25,5.25c-0.91,5.25-0.72,5.25,3.08,5.25h9.96l-5.62,32.43
			c-1.09,6.34-0.91,6.34,4.71,6.34c5.25,0,5.43,0,6.16-4.53l5.8-34.24h9.6c4.35,0,4.35,0,5.25-5.25
			C344.46,284.2,344.46,284.2,340.48,284.2"/>
	</g>
	<path id="House_2_" class="st1" d="M296.12,148.22c-6.7-11.22-14.1-22-22.17-32.28l-0.2-0.26l-0.07-0.08
		c-0.4-0.51-1.46-1.81-1.85-2.32c-3.68-5.04-7.99-45.39-8.5-48.36c-0.6-3.5-1.6-7.14-6.68-7.69c-4.12-0.43-10.22-1.12-16.96-1.46
		c-3.12-0.16-4.73,1.52-5.55,3.06c-0.56,1.06-0.81,2.25-0.83,3.45c-0.09,5.17,0.02,7.7,0.02,8.34c0,0.07-0.01,0.14-0.02,0.21
		c-0.07,0.36-0.26,0.66-0.53,0.88c-0.58,0.48-1.43,0.43-2.03-0.03c-3.19-2.43-19.86-15.08-29.07-20.79
		c-0.43-0.25-0.88-0.48-1.33-0.69c-3.36-1.51-7.29-1.56-10.49,0.28c-0.22,0.13-0.44,0.27-0.66,0.41c-3.03,1.91-54.97,31.39-94.28,97
		c0,0-2.44,3.42-0.61,6.63c1.77,3.69,18.94,4.73,21.68,5.05c3.1,0.32,3.08,2.86,3.08,2.86c0.32,26.93,0.79,40,5.18,85.65
		c0,0,0.71,4.77,5.42,5c1.91,0.1,8.98-0.31,27.82-0.73c0.72,0.08,1.36-0.44,1.44-1.16c0.01-0.11,0.01-0.22-0.01-0.33
		c-1.8-18.64-2.38-34.76-2.42-35.7c-0.04-0.67-0.65-1.67-1.27-1.92c-6.95-3.98-11.08-10.93-11.15-18.94
		c-0.52-36.9,1.73-65.22,1.73-65.22s0.22-3.93,3.67-3.62c3.45,0.31,3.22,4.18,3.22,4.18c-1.24,15.89-1.72,44.54-1.72,44.54
		s0,5.45,5.22,5.44c5.22-0.01,5.22-5.44,5.22-5.44c-0.16-22.42,1.73-44.95,1.73-44.95s0-3.82,3.68-3.82c2,0,2.77,1.38,3.06,2.48
		c0.16,0.59,0.19,1.21,0.14,1.82c-1.53,19.41-1.7,44.43-1.7,44.43s0,5.45,5.22,5.44c5.22-0.01,5.2-5.89,5.2-5.89
		c-0.09-18.58,1.74-44.46,1.74-44.46c0.16-2.01,1.17-3.77,3.63-3.79c3.07,0.1,3.31,3.04,3.24,3.79c-1.63,20.18-1.68,51.09-1.6,64.34
		c0.24,7.97-3.8,15.46-10.6,19.63c-0.63,0.42-0.97,1.16-0.88,1.91c0.43,12.27,1.46,25.87,2.35,35.62c0.04,0.66,0.55,1.19,1.2,1.25
		c5.21,0,15.21-0.06,21.49-0.06c10.07,0,14.1,0.06,21.49,0.17c0.83,0,1.23-0.61,1.3-1.46c1.91-17.66,2.58-30.44,2.67-31.56
		c0.11-1.26-1.44-1.5-1.44-1.5c-2.31-0.31-7.72-0.95-12.32-1.71c-4.6-0.75-4.77-5.99-4.77-5.99c-3.88-55.07,25.17-89.39,25.17-89.39
		s2.89-3.81,6.9-2.32c3.54,1.32,4.47,11.53,4.53,12.13c3.89,45.59-0.5,98.76-3.04,120.47c-0.1,0.89,0.32,1.59,1.12,1.77
		c1,0.17,18.45,0.75,20.04,0.57c2.83-0.29,5.11-2.45,5.55-5.27c6.18-42.66,5.24-85.44,5.24-85.44c0.13-1.52,1.34-2.73,2.86-2.86
		l16.72-1.79c2.19-0.32,4.06-1.19,5.03-3.08C297.37,152.6,297.3,150.18,296.12,148.22"/>
</g>
<g id="Layer_2" class="st3">
	<path class="st4" d="M28.4,377.31c0-8.53,6.35-13.36,19.52-14.03l11.66-0.57v-0.19c0-5.5-4.07-7.68-9.38-7.68
		c-3.77,0-7.38,1.11-9.55,2.93c-0.48,0.41-1.2,0.36-1.65-0.08c-1.49-1.44-4.55-4.4-6.32-6.11c-0.77-0.75-0.78-1.99,0-2.73
		c3.87-3.65,10.36-6.34,18.94-6.34c13.93,0,21.99,7.68,21.99,19.24v26.82c0,1.05-0.85,1.9-1.9,1.9h-9.38c-1.05,0-1.9-0.85-1.9-1.9
		v-2.65h-0.19c-2.84,3.7-7.87,5.69-14.03,5.69C36.17,391.63,28.4,386.41,28.4,377.31z M59.58,373.33v-0.32c0-0.55-0.46-0.98-1-0.95
		l-8.85,0.51c-4.74,0.28-7.2,1.71-7.2,4.55c0,3.22,3.13,4.64,6.92,4.64C55.22,381.77,59.58,378.55,59.58,373.33z"/>
	<path class="st4" d="M344,318.8c0-8.53,6.35-13.36,19.52-14.03l11.66-0.57v-0.19c0-5.5-4.07-7.68-9.38-7.68
		c-3.77,0-7.38,1.11-9.55,2.93c-0.48,0.41-1.2,0.36-1.65-0.08c-1.49-1.44-4.55-4.4-6.32-6.11c-0.77-0.75-0.78-1.99,0-2.73
		c3.87-3.65,10.36-6.34,18.94-6.34c13.93,0,21.99,7.68,21.99,19.24v26.82c0,1.05-0.85,1.9-1.9,1.9h-9.38c-1.05,0-1.9-0.85-1.9-1.9
		v-2.65h-0.19c-2.84,3.7-7.87,5.69-14.03,5.69C351.77,333.11,344,327.9,344,318.8z M375.18,314.82v-0.32c0-0.55-0.46-0.98-1-0.95
		l-8.85,0.51c-4.74,0.28-7.2,1.71-7.2,4.55c0,3.22,3.13,4.64,6.92,4.64C370.82,323.26,375.18,320.04,375.18,314.82z"/>
	<path class="st4" d="M0,319.26c0-8.53,6.35-13.36,19.52-14.03l11.66-0.57v-0.19c0-5.5-4.07-7.68-9.38-7.68
		c-3.77,0-7.38,1.11-9.55,2.93c-0.48,0.41-1.2,0.36-1.65-0.08c-1.49-1.44-4.55-4.4-6.32-6.11c-0.77-0.75-0.78-1.99,0-2.73
		c3.87-3.65,10.36-6.34,18.94-6.34c13.93,0,21.99,7.68,21.99,19.24v26.82c0,1.05-0.85,1.9-1.9,1.9h-9.38c-1.05,0-1.9-0.85-1.9-1.9
		v-2.65h-0.19c-2.84,3.7-7.87,5.69-14.03,5.69C7.77,333.57,0,328.35,0,319.26z M31.18,315.28v-0.32c0-0.55-0.46-0.98-1-0.95
		l-8.85,0.51c-4.74,0.28-7.2,1.71-7.2,4.55c0,3.22,3.13,4.64,6.92,4.64C26.82,323.71,31.18,320.49,31.18,315.28z"/>
	<path class="st4" d="M176.12,34.78c0-8.53,6.35-13.36,19.52-14.03l11.66-0.57V20c0-5.5-4.07-7.68-9.38-7.68
		c-3.77,0-7.38,1.11-9.55,2.93c-0.48,0.41-1.2,0.36-1.65-0.08c-1.49-1.44-4.55-4.4-6.32-6.11c-0.77-0.75-0.78-1.99,0-2.73
		C184.27,2.69,190.76,0,199.34,0c13.93,0,21.99,7.68,21.99,19.24v26.82c0,1.05-0.85,1.9-1.9,1.9h-9.38c-1.05,0-1.9-0.85-1.9-1.9
		v-2.65h-0.19c-2.84,3.7-7.87,5.69-14.03,5.69C183.89,49.09,176.12,43.88,176.12,34.78z M207.3,30.8v-0.32c0-0.55-0.46-0.98-1-0.95
		l-8.85,0.51c-4.74,0.28-7.2,1.71-7.2,4.55c0,3.22,3.13,4.64,6.92,4.64C202.94,39.24,207.3,36.01,207.3,30.8z"/>
</g>
</svg>
